<svg width="101" height="100" viewBox="0 0 101 100" fill="none" xmlns="http://www.w3.org/2000/svg">
<g clip-path="url(#clip0_546_8105)">
<g clip-path="url(#clip1_546_8105)">
<rect width="100" height="100" transform="translate(0.5)" fill="#C7E5FF"/>
<path d="M15.6334 47.5966L16.4154 45.0857C16.8522 43.7018 18.233 42.5825 19.5081 42.5825H22.3613C24.5029 36.0255 27.1236 28.1149 27.8844 26.262C29.0679 23.373 32.8581 22.0798 34.9363 21.4445C34.9363 21.4445 38.4164 20 50.0122 20C61.608 20 65.0882 21.4445 65.0882 21.4445C67.5257 22.3369 70.9213 23.5923 72.2598 26.3905C72.8938 27.7065 75.5568 35.844 77.7266 42.5825H80.5304C81.7985 42.5825 83.1863 43.7018 83.6231 45.0857L84.4121 47.5966C84.8419 48.9881 84.1656 50.1074 82.8975 50.1074H80.1289C80.4882 51.2418 80.6995 51.9225 80.6995 51.9225C80.9249 52.3309 81.0799 54.2065 81.0799 54.7056V77.5603C81.0799 79.0275 79.995 80.2224 78.6424 80.2224H69.7166C68.3711 80.2224 67.2791 79.0275 67.2791 77.5603V72.6974H32.7594V77.5603C32.7594 79.0275 31.6675 80.2224 30.3219 80.2224H21.3891C20.0435 80.2224 18.9586 79.0275 18.9586 77.5603V54.7056C18.9586 54.2065 19.1136 52.3233 19.339 51.9225C19.339 51.9225 19.5574 51.2418 19.9237 50.1074H17.1481C15.8659 50.1074 15.1967 48.9881 15.6334 47.5966ZM67.3355 61.5953H71.027C74.331 61.5953 77.635 61.1037 77.635 58.8197V56.0442C77.635 53.367 76.2049 53.2687 74.6762 53.2687C73.1686 53.2687 70.1957 54.6527 68.2372 55.6131C66.1097 56.6568 63.7285 57.5265 63.7285 59.2508C63.7215 60.8617 64.5457 61.5953 67.3355 61.5953ZM72.4782 43.5883C70.6606 35.36 68.6881 30.7165 68.2513 29.4157C67.899 28.4779 67.5609 25.5662 50.0193 25.5662C32.4776 25.5662 32.0549 28.8863 32.0197 28.9241C31.4773 30.6862 29.3356 35.9953 27.6167 43.5807C27.6167 43.5807 35.0208 46.3336 50.0193 46.3336C65.0248 46.3412 72.4782 43.5883 72.4782 43.5883ZM36.3241 59.2508C36.3241 57.5189 33.9289 56.6568 31.8084 55.6131C29.8499 54.6602 26.877 53.2687 25.3764 53.2687C23.8407 53.2687 22.4106 53.367 22.4106 56.0442V58.8197C22.4106 61.1113 25.7146 61.5953 29.0186 61.5953H32.7172C35.4928 61.5953 36.3241 60.8617 36.3241 59.2508Z" fill="url(#paint0_linear_546_8105)"/>
</g>
</g>
<defs>
<linearGradient id="paint0_linear_546_8105" x1="22" y1="25" x2="81" y2="81.5" gradientUnits="userSpaceOnUse">
<stop stop-color="#0078BD"/>
<stop offset="0.8125" stop-color="#031E30"/>
</linearGradient>
<clipPath id="clip0_546_8105">
<rect x="0.5" width="100" height="100" rx="24" fill="white"/>
</clipPath>
<clipPath id="clip1_546_8105">
<rect width="100" height="100" fill="white" transform="translate(0.5)"/>
</clipPath>
</defs>
</svg>
